<svg width="183" height="183" viewBox="0 0 183 183" fill="none" xmlns="http://www.w3.org/2000/svg">
<rect width="183" height="183" fill="#4D5760"/>
<path d="M86.1029 66.26H132.77C133.281 66.26 133.59 65.6945 133.312 65.2641C123.01 49.2966 106.963 46.7635 100.103 47.5283C66.5029 48.4649 54.9918 75.2356 53.4363 88.504C54.3587 137.563 114.995 145.684 132.179 117.612C132.455 117.161 132.135 116.586 131.608 116.573L85.0366 115.433C84.9701 115.432 84.901 115.42 84.8378 115.399C55.7959 105.975 67.4573 66.26 86.1029 66.26Z" fill="white" stroke="white"/>
<path d="M133.937 82.6503L72.1033 81.4796V99.0406L133.937 100.211V82.6503Z" fill="white"/>
<path d="M49.9365 75.6259C60.2032 56.8942 63.0634 53.1519 76.3333 47.9987C62.3333 41.4426 53.0477 54.5528 49.9365 61.5772V75.6259Z" fill="white"/>
<path d="M49.9367 104.894C52.6589 111.528 62.3033 126.904 79.1033 135.333C67.0478 137.284 44.3367 133.928 49.9367 104.894Z" fill="white"/>
<path d="M133.937 82.6503L72.1033 81.4796V99.0406L133.937 100.211V82.6503Z" stroke="white"/>
<path d="M49.9365 75.6259C60.2032 56.8942 63.0634 53.1519 76.3333 47.9987C62.3333 41.4426 53.0477 54.5528 49.9365 61.5772V75.6259Z" stroke="white"/>
<path d="M49.9367 104.894C52.6589 111.528 62.3033 126.904 79.1033 135.333C67.0478 137.284 44.3367 133.928 49.9367 104.894Z" stroke="white"/>
</svg>
